<?xml version="1.0" encoding="utf-8"?>
<!-- Generator: Adobe Illustrator 25.2.3, SVG Export Plug-In . SVG Version: 6.00 Build 0)  -->
<svg version="1.1" id="Layer_1" xmlns="http://www.w3.org/2000/svg" xmlns:xlink="http://www.w3.org/1999/xlink" x="0px" y="0px"
	 width="2000px" height="1500px" viewBox="0 0 2000 1500" style="enable-background:new 0 0 2000 1500;" xml:space="preserve">
<g>
	<g>
		<path d="M412,875.8c23,0,41.8,18.8,41.8,41.8c0,8.8-2.6,16.7-7.3,23.5c10.4,8,16.9,20.4,16.9,34.3c0,24.1-19.4,43.2-43.2,43.2H373
			V875.8H412z M410.8,932.3c8,0,16.5-6.5,16.5-16.5s-8.6-16.1-16.5-16.1h-12.4v32.6H410.8z M419.8,994.4c9.6,0,17.5-7.5,17.5-17.1
			s-8-17.3-17.5-17.3H399v34.5h20.8V994.4z"/>
		<path d="M516.4,990.1h53.2v28.4h-81.8V875.6h28.6V990.1z"/>
		<path d="M671.2,875.6l67.5,143h-31.6l-40.8-86.9l-44.3,86.9h-32l72.8-143H671.2z"/>
		<path d="M860.5,910.3c-27.7-17.9-69.6-1.2-69.6,37.1c0,40.2,44.3,56.3,71.2,35.9l18.4,21c-12.8,10.6-29.4,17.1-47.3,17.1
			c-40.8,0-74.1-33.3-74.1-74c0-40.8,33.3-74.1,74.1-74.1c17.1,0,33,5.9,45.7,15.7L860.5,910.3z"/>
		<path d="M946.6,953.2l-11,11.2v54.1H907V875.6h28.6v46.1l41.8-46.1h38.6l-50,55.9l51.2,86.9h-34.1L946.6,953.2z"/>
		<path d="M1089.1,958c-4.7-1.2-13.5-3.5-21.6-9c-11.4-7.5-17.7-18.6-18.4-32.2c-0.6-11.4,3.1-21.4,10.4-29.2
			c10.6-11,25.9-14.1,33.3-14.1c20.8,0,32.4,7.6,42.8,14.3l4.7,3.1l-14.9,24.3l-5.1-3.3c-9.2-5.9-15.1-9.8-27.5-9.8
			c-1.8,0-9,1.4-12.6,5.3c-1.2,1.2-2.6,3.5-2.4,8.2c0.2,7.3,5.3,11.4,18.4,14.7c1.6,0.4,2.9,0.8,4.1,1.2c13.7,4.7,24.3,11,31.6,19
			c7.3,8.2,11.2,17.7,11.2,27.9c0,10-4.3,20.4-11.4,28.4c-8.4,9.4-20,14.7-32.8,14.7c-6.3,0-14.9-0.4-25.1-3.5
			c-12.8-4.1-24.3-11.2-34.1-21.6l20.8-19.6c15.1,16.1,32,16.1,38.3,16.1c11.8,0,15.7-10.8,15.7-14.5c0-7.7-8.8-14.9-23.7-20
			l-0.6-0.2L1089.1,958z"/>
		<path d="M1276,1018.6v-87.5l-41,37.3l-41-37.3v87.5h-28.6v-143h9.8l59.8,54.3l59.6-54.3h10v143H1276z"/>
		<path d="M1331,1018.4V875.6h28.6v142.8L1331,1018.4L1331,1018.4z"/>
		<path d="M1490.9,875.6v28.6h-39.6v114.4h-28.6V904.2H1383v-28.6L1490.9,875.6L1490.9,875.6z"/>
		<path d="M1595.7,875.8h28.6v142.8h-28.6V959h-52.8v59.6h-28.6V875.8h28.6v54.7h52.8V875.8z"/>
	</g>
	<g>
		<path d="M693.3,1105.7c-1.9-6.3-5.1-9.9-13.2-9.9c-10.1,0-15.1,7.9-15.1,19.8c0,14.4,6.7,19.8,15.8,19.8c7.1,0,10.6-3.7,12.7-9.6
			l4.1,2.2c-3.2,8.1-9.3,11.3-17.6,11.3c-10.7,0-19.3-6.7-19.3-23.7c0-17.1,9.1-23.7,18.9-23.7c8.9,0,14.4,3.2,17.9,11.7
			L693.3,1105.7z"/>
		<path d="M756.2,1091.8c13.4,0,19.5,11.7,19.5,23.7s-6.1,23.7-19.5,23.7s-19.5-11.7-19.5-23.7
			C736.7,1103.6,742.8,1091.8,756.2,1091.8z M756.2,1135.3c10.7,0,15.2-10.4,15.2-19.8s-4.5-19.8-15.2-19.8s-15.2,10.4-15.2,19.8
			S745.5,1135.3,756.2,1135.3z"/>
		<path d="M818.4,1093h4.3v41.2h24.9v3.9h-29.2V1093z"/>
		<path d="M888.5,1093h4.3v41.2h24.9v3.9h-29.2V1093z"/>
		<path d="M957.6,1093h29.5v3.9h-25.2v16h22.7v3.9h-22.7v17.4h26.5v3.9h-30.9V1093H957.6z"/>
		<path d="M1061.3,1105.7c-1.9-6.3-5.1-9.9-13.2-9.9c-10.1,0-15.1,7.9-15.1,19.8c0,14.4,6.7,19.8,15.8,19.8c7.1,0,10.6-3.7,12.7-9.6
			l4.1,2.2c-3.2,8.1-9.3,11.3-17.6,11.3c-10.7,0-19.3-6.7-19.3-23.7c0-17.1,9.1-23.7,18.9-23.7c8.9,0,14.4,3.2,17.9,11.7
			L1061.3,1105.7z"/>
		<path d="M1102.6,1093h32.6v3.9H1121v41.2h-4.3v-41.2h-14.1V1093z"/>
		<path d="M1175.6,1093h4.3v45.1h-4.3V1093z"/>
		<path d="M1219.6,1093h4.6l14.1,38.3l14.4-38.3h4.4l-16.9,45.1h-3.8L1219.6,1093z"/>
		<path d="M1296.1,1093h29.5v3.9h-25.2v16h22.7v3.9h-22.7v17.4h26.5v3.9H1296L1296.1,1093L1296.1,1093z"/>
	</g>
	<g>
		<g>
			<g>
				<polyline points="1203.9,750.8 819.6,565.2 723.4,519.1 627.1,473.1 434.3,381.7 436.2,377.6 541.1,427.4 645.9,477.5 
					750.5,527.8 855.1,578.1 857.2,579.2 856.5,581.4 798.7,749.5 797.2,746.7 973.9,791.3 972.5,792.9 886.7,596.5 887.3,596.2 
					974.7,792 975.7,794.2 973.3,793.6 796.2,750.8 794,750.3 794.7,748.1 851.5,579.7 852.9,582.9 748.1,532.8 643.4,482.7 
					538.8,432.3 434.3,381.7 436.2,377.6 628.2,470.8 724.3,517.1 820.5,563.3 1205.8,746.8 1202.9,749.9 1091.6,564.8 980.5,379.5 
					983.2,381.1 731,373.3 478.7,365 480,364.8 436.4,382.4 436,376.8 684,448.5 807.9,484.3 931.8,520.5 932.1,520.6 932.3,520.9 
					1000.8,650.6 1000.3,651 930.8,521.6 931.3,522 807,487.4 682.8,452.4 434.4,382.5 426.3,380.2 434.1,376.9 477.6,359 
					478.2,358.8 478.9,358.8 731.2,366.5 983.4,374.6 985.2,374.6 986.1,376.2 1096.6,561.8 1206.7,747.6 				"/>
			</g>
			<g>
				<polyline points="794.8,747.6 904.1,561.8 1013.7,376.2 1014.6,374.6 1016.4,374.6 1270.8,366.5 1398,362.6 1525.2,358.8 
					1525.9,358.8 1526.5,359.1 1565.8,377 1573.1,380.3 1565.4,382.5 1317.4,452.5 1193.4,487.5 1069.3,522.2 1069.8,521.8 
					1000.8,651 1000.3,650.6 1068.4,521 1068.6,520.7 1068.9,520.6 1192.5,484.5 1316.3,448.6 1563.8,376.9 1563.4,382.3 
					1524,364.7 1525.4,365 1398.2,369.2 1271,373.3 1016.6,381.1 1019.4,379.5 909.2,564.8 798.6,749.9 795.8,746.8 1180.2,563.3 
					1276.2,517.1 1372.1,470.8 1563.6,377.6 1565.6,381.7 1461.1,432.4 1356.5,482.9 1251.8,533.2 1147,583.3 1148.3,580.1 
					1206.8,748.1 1207.6,750.3 1205.3,750.8 1027.7,793.6 1025.3,794.2 1026.3,792 1113.5,596.2 1114.1,596.5 1028.5,792.9 
					1027.1,791.3 1204.3,746.7 1202.8,749.5 1143.4,581.8 1142.6,579.6 1144.7,578.6 1249.3,528.1 1354,477.7 1458.8,427.5 
					1563.6,377.6 1565.6,381.7 1373.2,473.1 1277.1,519.1 1181.1,565.2 797.7,750.8 				"/>
			</g>
		</g>
		<g>
			<path d="M1291,383.5c-91.4,0-182.7-0.3-273.3-0.8v-5.8c181.3,1.1,365.3,1.1,546.9,0v5.8C1473.8,383.2,1382.4,383.5,1291,383.5z"
				/>
		</g>
		<g>
			<path d="M709,383.5c-91.6,0-183-0.3-273.7-0.8v-5.8c181.4,1.1,365.8,1.1,548.1,0v5.8C892.2,383.2,800.5,383.5,709,383.5z"/>
		</g>
	</g>
</g>
</svg>
